<svg id="Capa_1" data-name="Capa 1" xmlns="http://www.w3.org/2000/svg" viewBox="0 0 1080 1080"><defs><style>.cls-1{fill:#f1c310;}.cls-2{fill:#2195f2;}.cls-3{fill:#f9f9f9;}.cls-4{fill:#f4f7f9;}.cls-5{fill:#1790f2;}.cls-6{fill:#1e94f2;}.cls-7{fill:#1891f2;}.cls-8{fill:#148ff2;}.cls-9{fill:#1992f2;}.cls-10{fill:#118ef1;}.cls-11{fill:#1791f2;}.cls-12{fill:#2f9cf3;}.cls-13{fill:#0f8df1;}.cls-14{fill:#1690f2;}.cls-15{fill:#1490f2;}.cls-16{fill:#108ef1;}.cls-17{fill:#138ff2;}.cls-18{fill:#f7faf9;}.cls-19{fill:#128ff1;}.cls-20{fill:#0d8df1;}</style></defs><title>css icon</title><rect class="cls-1" x="51" y="50.5" width="978" height="979" rx="112.75"/><path class="cls-2" d="M541.46,104.78H912.22c11.29,0,11.21,0,10.22,11.15q-5.75,64.47-11.39,129Q901.14,356,891.14,467.16c-6,67.45-11.7,134.92-17.69,202.36Q864.54,770,855.32,870.4c-.63,6.93,1.85,15.76-3.62,20.17-5.14,4.13-13.33,4.53-20.21,6.45q-142.82,39.9-285.62,79.83a14.34,14.34,0,0,1-8.29.21q-150.69-42.27-301.47-84.18c-5.6-1.56-7.53-4.21-8-9.65q-6.23-73.07-12.78-146.08Q208.19,656.29,201,575.43,194.39,501,187.88,426.51q-9-101.52-18.19-203c-3.37-37.76-6.64-75.53-10.09-113.28-.36-3.87.23-6,4.66-5.46a47.42,47.42,0,0,0,5.72,0Z"/><path class="cls-3" d="M323.8,534.26c-2.6-24.09-5.09-48.2-7.88-72.28-.49-4.25,1.75-4.14,4.51-4.18,15.93-.26,31.87-.41,47.8-.82,19.71-.5,39.46.39,59.14-1.2,9.86-1.63,19.73-1.32,29.61-.22,2.61.09,5.23.29,7.84.26,66.07-.7,132.14-1.58,198.2-2,7.8,0,9.5-2.85,9.92-9.82,1.61-27.12,3.65-54.22,5.82-81.31.43-5.33-.32-7.44-6.46-7.41-69.65.36-139.3.35-208.95.57q-75.14.23-150.27.88c-6,.06-7.59-1.86-7.92-7.59q-2.28-38.91-5.44-77.76c-.45-5.56,1.72-6.18,6.37-6.17q76.57.19,153.14.08,158.16,0,316.3-.12c6.19,0,7.93,1,7.23,7.82-3.53,34.62-6.31,69.32-9.4,104q-4.7,52.71-9.47,105.41-3.82,42.73-7.62,85.48-5.55,62-11.14,123.92c-1.68,18.76-3.42,37.52-4.83,56.3-.44,5.89-2.21,9-8.62,10.68-59.08,16-118,32.5-177,48.87a27.34,27.34,0,0,0-3.23,1.36c-5.12,1.53-10.17,3.91-15.62,1.16L398.19,771.78c-16.06-4.49-32-9.36-48.22-13.37-5.29-1.31-6.84-3.9-7.24-8.68-1.88-21.86-3.92-43.7-5.88-65.55-2.21-24.7-4.23-49.42-6.74-74.08-.63-6.24.1-8.74,7.4-8.61,27.19.48,54.39.41,81.59,0,6.44-.1,7.74,2,8.19,8,1.63,22.35,4.06,44.63,6,67,.36,4.1,1.76,6,6.1,7.13,32,8.4,64,17.16,95.91,25.92a21.69,21.69,0,0,0,11.93,0c31.72-8.67,63.42-17.41,95.24-25.65,5.18-1.35,7-3.73,7.46-8.53,2.9-27.5,6-55,8.93-82.48,1.12-10.42,2.05-20.87,3.06-31.3-1.23-4.1,1.48-8.81-2-12.57-15.05.32-30.09.58-45.09.08-84.84-2.84-169.71-.42-254.57-1.29-2.51,0-5.21.81-7.63-.86,4-2.44,261.57-4,303-2H329.21c8,.15,15-.21,21.85,1.53-8.6,1.15-17.16,2-25.79.64l-.13-2.48C323.59,541.35,325.68,537.55,323.8,534.26Z"/><path class="cls-4" d="M325.27,547.16h24.17v-1.23H328.57v-1.12h332.9v.88H354v1.47h7.69q147.06,0,294.13.07c2.8,0,6.29-1.74,8.4,1.89-18.31,1.8-36.65.65-55,.72a7.76,7.76,0,0,1-3.36-1.13c-3.09-.09-6.18-.27-9.27-.26q-131.49.24-263,.43C330.87,548.88,327.42,550.71,325.27,547.16Z"/><path class="cls-5" d="M781.47,263.49H301.4v-.71H781.75Z"/><path class="cls-6" d="M605.88,548.71c19.45-.19,38.9-1.12,58.34.4q-1.14,6.24-2.27,12.48c-.34-.32-1-.67-1-1,1.2-10.87-6-9.48-13-9.28-11.56.34-23.15.1-34.72.09C610.5,551.44,607.48,552,605.88,548.71Z"/><path class="cls-7" d="M457,455.56l-29.61.22H352.51c2.46-2.31,5.11-1.64,7.66-1.64q44.35-.09,88.69,0C451.58,454.16,454.63,453.05,457,455.56Z"/><path class="cls-8" d="M331.47,598.9H425v.7H331.17Z"/><path class="cls-9" d="M631.63,358.17H583.26v-1.3h48.42c.44.3.58.6.42.88S631.78,358.17,631.63,358.17Z"/><path class="cls-10" d="M631.63,358.17c0-.43,0-.87,0-1.3h44v1.3Z"/><path class="cls-11" d="M672.79,405.5v15.36A30.28,30.28,0,0,1,672.79,405.5Z"/><path class="cls-12" d="M535.8,810.19c5.38,1.91,10.4-1,15.62-1.16C546.42,812.19,541.32,813.92,535.8,810.19Z"/><ellipse class="cls-13" cx="670.98" cy="436.92" rx="0.46" ry="8"/><path class="cls-8" d="M333.47,662.32v10.79l-.65,0V661.73Z"/><ellipse class="cls-14" cx="766.91" cy="476.3" rx="0.49" ry="7.03"/><path class="cls-15" d="M758.37,566.09c.5,3.43,1.24,6.6-.1,10.19C757.1,572.42,757.72,569.11,758.37,566.09Z"/><path class="cls-16" d="M768.79,453v8l-.69,0v-8.15Z"/><path class="cls-17" d="M749.93,671.64a14.25,14.25,0,0,1,0-9.63Z"/><path class="cls-18" d="M323.8,534.26c2.8,3.17,1,6.94,1.34,10.42C323.63,541.35,323.67,537.81,323.8,534.26Z"/><path class="cls-19" d="M428.66,610v-6.67l.59-.09v6.53Z"/><path class="cls-20" d="M652.41,630.52c.74,3.24,1,5,.06,7C651.18,635.5,651.56,633.61,652.41,630.52Z"/></svg>