<svg id="Capa_1" data-name="Capa 1" xmlns="http://www.w3.org/2000/svg" viewBox="0 0 1080 1080"><defs><style>.cls-1{fill:#ffca1d;}.cls-2{fill:#347ab3;}.cls-3{fill:#fff;}.cls-4{fill:#fefefe;}</style></defs><title>python icon</title><rect x="51" y="50.5" width="978" height="979" rx="112.75"/><path class="cls-1" d="M700.44,736.45c-45.71,0-91.43.12-137.14-.14-6.56,0-9.14,1.39-8.83,8.51.58,13.28.58,26.63,0,39.91-.3,6.86,2.21,8,8.39,8,54.39-.23,108.78-.17,163.17-.1,12.53,0,10.8-1.55,10.83,11.24,0,11.28.49,22.64-.61,33.82-2.51,25.56-16.09,44.73-36.68,59.23-25.13,17.69-54,25.86-83.55,32-60.89,12.72-120.13,6.7-177.72-16.33a126.17,126.17,0,0,1-40.09-25.35c-17.31-16.32-26.22-36.07-26.12-60.12.25-56.71-.12-113.42.14-170.12.25-54.57,40.45-94.62,95-94.81,57.57-.2,115.18-1.29,172.72.29,64.73,1.78,121.21-53.27,119.72-119.65-.51-22.84.12-45.71-.21-68.56-.1-6.38,1-9.09,8.31-8.88,19.66.57,39.35.25,59,.19,32.78-.11,56.9,14.53,73.29,42.63,14.09,24.14,19.86,51,25.37,77.9,5.29,25.79,8.44,51.88,7.79,78.35-1.13,45.37-13.75,87.68-34.14,127.83-16,31.45-42.38,44.78-77.18,44.29C781.46,736,741,736.45,700.44,736.45Z"/><path class="cls-2" d="M390.79,337.85c41.37,0,82.75-.14,124.13.15,6.4.05,8.57-1.45,8.29-8.12-.54-13-.56-26.05,0-39.05.3-6.95-1.9-8.66-8.7-8.63-55,.27-110,0-164.93.33-7.56.05-10.12-1.65-9.62-9.48.87-13.56.35-27.19,1-40.77,1.82-40.26,17.8-61.3,56.51-73.51,41-12.93,83.33-15.81,126-15.75,35.63.06,71.41,1.07,105.77,11,36.88,10.7,63.8,33.36,73.6,72.3a90.63,90.63,0,0,1,2.41,21.49c.19,56.13.4,112.27,0,168.4-.31,45.66-27.21,81.44-68.37,92.49-9.33,2.5-18.8,2.92-28.37,2.92-58.15,0-116.32-.23-174.47,0-56.06.26-103,38.53-114.37,92.89a132.32,132.32,0,0,0-2.39,27.61c.06,22.86-.14,45.72.13,68.58.06,5.69-1,8.27-7.5,8.08-20.24-.58-40.5-.19-60.73-.84-31.54-1-54.51-16.82-71.29-42.71-16.63-25.66-21.63-55.11-27.41-84.31-10.33-52.21-5.09-103.59,8.48-154.46,14.82-55.55,57.33-88.4,114.69-88.65C312.66,337.71,351.72,337.85,390.79,337.85Z"/><path class="cls-3" d="M641.34,827.06a33.14,33.14,0,0,1,.14,66.28c-18,.07-32.94-15-32.9-33.13C608.63,841.72,623.08,827.09,641.34,827.06Z"/><path class="cls-4" d="M452.73,217.15c-.07,18.4-14.83,33.19-32.9,33a33.17,33.17,0,0,1-32.59-33.47c.29-18.26,15.3-33.34,33.05-33.2S452.8,198.89,452.73,217.15Z"/></svg>