<svg id="Capa_1" data-name="Capa 1" xmlns="http://www.w3.org/2000/svg" viewBox="0 0 1080 1080"><defs><style>.cls-1{fill:#fff;}</style></defs><title>sql icon</title><rect x="51" y="50.5" width="978" height="979" rx="112.75"/><path class="cls-1" d="M651.11,614.4C612,646.84,566.9,660.87,519.68,668.84c-68.79,11.61-137,8.72-204.16-11.18-30-8.88-58.12-21.6-82.11-42.21-2.68,1.4-1.42,3.73-1.43,5.5-.11,19,1,38.07-.32,57-1.58,23.67,9.67,39.65,27.57,52.42,26.22,18.69,56.28,28,87.33,34.41,45.05,9.33,90.57,11.41,136.36,7.47,5.28-.46,7.09.81,7.66,6.13,1.94,18,2.13,18-16.06,19.2-59.8,4-118.37-1.94-175.13-22-22.13-7.8-43-18.17-61.3-33-20.21-16.39-31.32-36.35-31.15-63.63q1-176.45,0-352.89c-.16-27,11.17-46.64,31.06-62.89,17.07-14,36.42-24,57-31.5,57-20.94,116-27.38,176.37-23.67,38.36,2.36,75.83,9,112.07,22,21.83,7.83,42.49,17.94,60.74,32.49,20.79,16.58,32.14,36.91,32,64.81-.77,113.51-.42,227-.13,340.55,0,7.75-2.22,9.27-9.39,9-15.46-.53-15.48-.13-15.49-15.8C651.1,646,651.11,630.93,651.11,614.4ZM441.32,231.54A468.36,468.36,0,0,0,382.94,235c-12.72,1.48-25.43,3.51-37.94,6.23-30.19,6.55-59.47,15.62-85.17,33.67-37.25,26.15-37.07,60,.33,86.27,20,14.05,42.4,22.95,65.83,28.83q115.25,28.9,230.71,0c27.71-7,54.21-17.37,76-36.88,24.6-22,24.41-48.78-.3-70.78-13-11.6-28-19.73-44.09-26.1C541.12,237.49,491.6,232.18,441.32,231.54ZM231.91,367.77c0,23.26.6,45-.19,66.73-.65,17.75,6.42,31.23,19.24,42.49,22,19.34,48.55,29.44,76.28,36.54,69.81,17.87,140.18,18.4,210.64,4.34,30.57-6.1,60.08-15.67,85.87-34.08,17.91-12.77,29.18-28.73,27.63-52.39-1.25-18.93-.22-38-.32-57,0-1.81,1.17-4.1-1.19-5.49-29.5,24.14-58.33,35.21-85.27,43-66,19-133,21.76-200.49,10.47C316.61,414.4,271.27,400.38,231.91,367.77Zm0,123.08c0,23.79.56,45.64-.18,67.44-.6,17.46,6.48,30.69,19,41.82,21.71,19.28,48,29.43,75.47,36.5,70.28,18.1,141.17,18.75,212.15,4.48,30.3-6.09,59.55-15.62,85.16-33.81,18.19-12.92,29.63-29.08,27.86-53-1.27-17.12-.25-34.4-.26-51.62V490.82c-21,18.08-43.67,29.65-68,38.34-36.51,13.07-74.25,19.64-112.87,22-55.37,3.37-109.69-2.15-162.59-19.25C280.49,523.1,255,510.78,231.91,490.85Z"/><path class="cls-1" d="M651.11,786.4c0-11.81-.05-23.63,0-35.44.12-27.2,23.26-50.91,49.54-50.83,25.89.07,49,23.78,49.09,50.48.08,23.89,0,47.78.06,71.66a41.22,41.22,0,0,1-1.71,12.92c-2.3,7.14-7.12,13.59.54,21.26,3.72,3.72.93,9.95-3.49,13.51-5,4.06-10.67,4.09-15.48-.15-3.25-2.86-5.52-3.88-9.89-1.7C687,884.42,652,855,651.19,824.93c-.33-12.84-.05-25.69-.05-38.53Zm72,42.89,1.87-1.17c0-27.17.37-54.35-.15-81.51-.26-13.72-10.3-21.87-24.73-21.79-13.92.07-23.84,8.23-24.11,21.61-.52,26.68-.63,53.38,0,80.05.38,15.67,14.89,25,30.77,19.79-2.79-2.39-5.17-4.32-7.42-6.4s-4.42-4.29-6.54-6.52c-5.84-6.18-6.31-13.21-1.29-18.43,5.22-5.43,12.6-5.07,19,1.19C714.88,820.37,719,824.89,723.15,829.29Z"/><path class="cls-1" d="M540.87,823.44a53.79,53.79,0,0,0,5.39,0c4.06-.42,6,.35,6.8,5.32,2.33,14.07,13.64,21.27,28.44,19.17,13.41-1.9,21-11.73,20.27-26.31-.68-13.88-9.46-22.22-24-22.78-26.34-1-49-22.51-50-47.33-.94-25,21-49.46,46-51.26,24.49-1.77,49.48,19.17,52.52,43.75.56,4.54-.77,6.08-5.19,5.57a32.11,32.11,0,0,0-6.93,0c-7.56.77-12.76.12-14.36-9.75-1.63-10-11.33-15.07-23.2-14.94-11.35.12-19.4,5.5-22.63,15.13-6.3,18.72,4.08,33.47,24,34.18,26.42.94,49.27,25.09,48.4,51.17-.85,25.5-25.63,48.42-51.32,47.46-22.32-.85-44.3-21.41-47.13-43.8-.58-4.53.73-6.06,5.17-5.56A68.17,68.17,0,0,0,540.87,823.44Z"/><path class="cls-1" d="M774.42,786.24q0-35.43,0-70.85c0-9.72,4.59-15.26,12.37-15.24s12.27,5.57,12.28,15.32c0,41.84.12,83.69-.12,125.53,0,5.58,1.11,7.42,7.06,7.26,17.44-.45,34.9-.19,52.36-.14,9.08,0,14.56,4.63,14.68,12.15.13,7.83-5.42,12.49-15.09,12.5q-34.26.06-68.53,0c-10.61,0-15-4.35-15-14.9C774.38,834,774.42,810.11,774.42,786.24Z"/><path class="cls-1" d="M287.46,712.48a18.5,18.5,0,1,1,18.43-18.77A18.61,18.61,0,0,1,287.46,712.48Z"/><path class="cls-1" d="M287.77,428.86a18.5,18.5,0,1,1-18.87,18.31A18.63,18.63,0,0,1,287.77,428.86Z"/><path class="cls-1" d="M287.28,589.17a18.5,18.5,0,1,1,18.61-18.59A18.61,18.61,0,0,1,287.28,589.17Z"/></svg>