<svg id="Capa_1" data-name="Capa 1" xmlns="http://www.w3.org/2000/svg" viewBox="0 0 1080 1080"><defs><style>.cls-1{fill:#092e20;}.cls-2{fill:#fff;}</style></defs><title>django icon</title><rect class="cls-1" x="51" y="50.5" width="978" height="979" rx="112.75"/><path class="cls-2" d="M484.56,418.24V269.72h97.73V726.88c-64.78,11.86-129.43,20.34-194.58,6.25C307.84,715.86,266.46,656.51,271.25,570c6.32-114,95.82-166,196.54-154.15C472.58,416.46,477.35,417.23,484.56,418.24Zm-.37,237c0-49.5.1-99.42-.28-149.34,0-2.76-3.55-6.86-6.38-8-25.35-10.21-66.64-.67-84.72,19.1-23.83,26.07-27.32,82.8-7,113.42C403.21,656.56,447,668,484.19,655.28Z"/><path class="cls-2" d="M544.88,830.05c5.41-3.11,8.58-5.3,12-6.86,54.23-24.51,80.13-68.13,81.47-126,2-85.43,2-170.89,2.86-256.34.06-5.85,0-11.69,0-18.63H739.4c.45,3.63,1.24,6.93,1.23,10.23-.27,88.91-.22,177.82-1.16,266.72-.38,36.56-5.94,72.3-23.87,105.24-16.72,30.73-42.75,50.72-73.16,66-2.78,1.4-7.09,2.41-9.61,1.25C604,858.31,575.34,844.54,544.88,830.05Z"/><path class="cls-2" d="M642.1,270.13h97.41V370.39H642.1Z"/></svg>