<svg id="Capa_1" data-name="Capa 1" xmlns="http://www.w3.org/2000/svg" viewBox="0 0 1080 1080"><defs><style>.cls-1{fill:#e34d26;}.cls-2{fill:#fefefe;}</style></defs><title>html 5 icon</title><rect class="cls-1" x="51" y="50.5" width="978" height="979" rx="112.75"/><path class="cls-2" d="M540.61,365.93q120.71,0,241.4-.07c4.14,0,5.79.22,5.29,5.4-3.94,40.75-7.47,81.54-11.08,122.33-3.14,35.47-6.17,71-9.34,106.44-3.49,39.12-7.14,78.23-10.64,117.35-2.83,31.66-5.53,63.34-8.31,95-1.63,18.57-3.41,37.13-4.88,55.71-.25,3.15-1.9,3.67-4.29,4.33Q669.36,891.59,600,910.88c-18.56,5.15-37.15,10.21-55.69,15.45a15.37,15.37,0,0,1-8.71.12q-96.5-26.85-193-53.49c-4-1.08-5.29-2.71-5.63-7-2.26-28-5-56-7.49-84s-4.87-56-7.37-84.06C319.58,670,317,642.2,314.5,614.35c-2.18-24.37-4.26-48.75-6.43-73.12-2.15-24.2-4.39-48.39-6.55-72.6q-3.27-36.56-6.43-73.11c-.76-8.63-1.26-17.28-2.37-25.86-.45-3.42.58-3.8,3.49-3.78,17.16.1,34.32.05,51.48.05Z"/><path class="cls-2" d="M597.92,261.53c6.33-10.39,12.3-20,18-29.7,1.53-2.6,3.22-3.66,6.3-3.58q12.48.34,25,0c3.16-.09,3.88,1,3.87,4q-.15,43.48,0,87c0,2.8-.76,3.74-3.62,3.67-8-.17-16-.2-24,0-3.23.09-3.89-1.12-3.86-4.06.14-12.83.08-25.66,0-38.49,0-.89.56-1.93-.75-3.17-6.08,9.38-12.09,18.63-18.08,27.88-3.18,4.91-3.18,4.92-6.4,0-5.92-9.16-11.83-18.33-18.64-27.35v6.16c0,11.66,0,23.32,0,35,0,2.35.11,4.17-3.24,4.08-8.16-.2-16.33-.14-24.49,0-2.41,0-3.15-.76-3.14-3.14q.09-44,0-88c0-2.52.64-3.51,3.35-3.47,8.83.16,17.66.19,26.49,0,2.72-.07,3.77,1.4,4.93,3.31C585.6,241.36,591.57,251.12,597.92,261.53Z"/><path class="cls-2" d="M430.21,275.56c0,14.32-.12,28.64.08,43,0,3.59-1.07,4.47-4.5,4.36-7.65-.25-15.32-.21-23,0-3.07.09-4-.82-3.95-3.9.2-8-.05-16,.13-24,.07-3-.61-4.12-3.84-4-7.15.25-14.32.19-21.48,0-2.77-.07-3.75.66-3.68,3.58.19,8-.05,16,.13,24,.07,3.07-.49,4.44-4,4.32-8-.27-16-.23-24,0-3.21.08-3.83-1.09-3.82-4q.15-43.2,0-86.42c0-3.33,1-4.25,4.22-4.16,8,.22,16,.18,24,0,2.87-.06,3.69.88,3.63,3.69-.17,8,.06,16-.12,24-.07,2.84.77,3.7,3.62,3.63,7.32-.19,14.65-.17,22,0,2.62.06,3.44-.7,3.38-3.36-.16-8,.07-16-.12-24-.07-3,.79-4,3.91-4,7.82.21,15.66.27,23.47,0,3.58-.13,4,1.34,4,4.36C430.14,246.92,430.21,261.24,430.21,275.56Z"/><path class="cls-2" d="M487.46,228.33c13.16,0,26.32.1,39.48-.07,3.24,0,4.3.81,4.19,4.16-.25,7.82-.21,15.66,0,23.48.07,3-.72,4.07-3.88,4-6.65-.25-13.33.11-20-.16-3.32-.13-4.18.92-4.15,4.18.15,18,0,36,.15,54,0,3.73-.67,5.27-4.83,5.06-7.48-.38-15-.29-22.48,0-3.43.12-4.14-1.09-4.11-4.26.13-18-.05-36,.16-54,0-3.9-.95-5.18-4.94-5-6.31.35-12.66,0-19,.15-2.86.08-4.19-.42-4.09-3.75.24-8,.23-16,0-24-.09-3.18,1-3.88,4-3.85C461.14,228.42,474.3,228.33,487.46,228.33Z"/><path class="cls-2" d="M666.77,275.62c0-14.32.11-28.63-.08-43-.05-3.55,1-4.53,4.5-4.41,7.31.24,14.66.37,22,0,4.44-.25,5.1,1.42,5.05,5.36-.21,17.47.11,35-.22,52.43-.09,4.83,1.52,5.68,5.84,5.57,11.31-.28,22.64.05,33.95-.17,3.56-.07,5,.55,4.8,4.54-.36,7.81-.19,15.65,0,23.47.06,2.61-.69,3.45-3.35,3.44-23-.09-46-.13-68.92,0-3.58,0-3.55-1.74-3.54-4.31C666.8,304.25,666.77,289.94,666.77,275.62Z"/><path class="cls-1" d="M539.35,467.79q75.24,0,150.47-.06c3.6,0,5,.29,4.61,4.72-1.77,18.56-3.15,37.16-4.29,55.77-.26,4.22-2.46,3.79-5.19,3.79Q571.49,532,458,532c-6.44,0-6.49,0-5.79,6.43,1.92,17.37,4,34.72,5.73,52.11.3,3.06,1.5,3.4,4,3.38,11.49-.1,23,0,34.49,0q90.22,0,180.45-.11c4.5,0,5.55,1.09,5.16,5.44-2.37,26.2-4.52,52.42-6.68,78.63Q672.15,717.39,669,757c-.69,8.63-1.56,17.25-2,25.9-.17,3.38-2.45,3.5-4.6,4.09Q622,798,581.63,809c-12.67,3.44-25.36,6.8-38,10.33a11.25,11.25,0,0,1-6.3,0Q476.94,803,416.5,786.91c-2.72-.72-4.09-1.86-4.37-4.92q-4.28-45.5-8.85-91c-.23-2.27,0-3.26,2.71-3.24,19,.11,38,.08,57,0,2.08,0,2.89.66,3.09,2.8,1.29,13.58,2.81,27.15,4,40.74.3,3.45,1.35,5.16,4.93,6.14,20.67,5.67,41.26,11.61,61.85,17.55a10.72,10.72,0,0,0,6.27,0c20.75-6,41.5-12,62.31-17.72,2.74-.76,3.71-1.87,3.93-4.64,1.82-22.4,3.87-44.78,5.67-67.18.68-8.49.47-8.51-8.19-8.51q-100.23,0-200.45.12c-4.54,0-5.86-1.38-6.23-5.61q-5-57-10.24-113.89c-2-21.89-3.91-43.77-6.16-65.63-.41-3.91.85-4.22,4.12-4.21Q463.63,467.87,539.35,467.79Z"/></svg>