<svg id="Capa_1" data-name="Capa 1" xmlns="http://www.w3.org/2000/svg" viewBox="0 0 1080 1080"><defs><style>.cls-1{fill:#162b44;}.cls-2{fill:#0769ad;}.cls-3{fill:#fff;}.cls-4{fill:#0b6aac;}</style></defs><title>iquerv icon</title><rect class="cls-1" x="51" y="50.5" width="978" height="979" rx="112.75"/><path class="cls-2" d="M786.71,533.07c1,3.27-1,5.26-2.23,7.38-41.63,74-104.77,115.2-189,125.1C447.34,683,330.1,582,291.23,478.34,269.63,420.73,265.5,363,290.42,305c11.14-25.9,30.24-46.05,48.08-69.24,0,2.75.28,3.79,0,4.57-26.74,64.09-22.55,127.85,7,189,46.17,95.39,122.83,152.93,227.68,169.84,58.18,9.39,114.76,2,166.72-28.6A186.25,186.25,0,0,0,782,536.34C783.17,535.07,783.93,533.17,786.71,533.07Z"/><path class="cls-2" d="M473.13,190.61c-3.35,12.71-7.78,24.79-9.77,37.58-7.79,49.85,4.48,95.12,34.13,135C545,427,608.62,459.93,689.19,455c42.59-2.63,78.89-20.23,107.36-52.7.86-1,1.67-2,2.59-2.9.32-.32.91-.38,1.79-.71,1,3.12-1,5.35-2.16,7.64-26,51.55-67.91,82.26-124.42,91.95-81.51,14-148.84-13-201.68-75.34-28.94-34.15-44.79-74.41-44.86-119.85-.06-32.25,9-61.82,27.91-88.15Q464.45,202.78,473.13,190.61Z"/><path class="cls-3" d="M368.46,867.73c-13.23,0-26.46.29-39.68-.06-31.47-.83-50.29-19.68-50.38-51.08a124.08,124.08,0,0,1,18.93-67.18c19.64-31.47,60.44-44.28,95-30.35,25.29,10.2,38,36.38,31.57,65.34-3.49,15.71-8.87,30.84-15,45.69-2.2,5.38-1.54,7.43,4.64,7.23,10.48-.34,10.89-.88,7.81,10.86-5.14,19.53-5.06,19.55-24.89,19.55Zm-15.92-31.36v0c4.67,0,9.35-.26,14,.07,4.95.35,7.38-1.35,8.68-6.43,3.59-14,7.83-27.89,11.75-41.83a52.93,52.93,0,0,0,1.72-20.79c-1.25-10.23-6.6-17.12-16.71-20.16-17.3-5.2-35.41,1.2-44.52,16.7a86.72,86.72,0,0,0-11.79,50.67c.92,13.45,9.33,21,22.88,21.69C343.2,836.56,347.88,836.37,352.54,836.37Z"/><path class="cls-3" d="M628.36,818.8c-10.12,0-20.24-.19-30.34.12-2.91.1-7.5-2.44-8.55,2.4-1.12,5.16-.57,10.49,4.72,13.74,4.1,2.53,8.73,3.13,13.44,3.14,15.56,0,31.13.28,46.68-.05,6.15-.12,7.6,1.77,6.36,7.71-4.79,23-4.65,23.18-28.51,23.06-13.46-.07-26.95.92-40.39-.87-28.15-3.76-38.5-16-36.4-44.4A137.85,137.85,0,0,1,565,783c10-25,29.49-36.33,55.46-38.06,10.39-.69,20.74-.18,30.77,3,13.68,4.34,20.71,14.12,22.12,28,1.33,13.09-1.54,25.76-4.56,38.4-1,4-3.68,4.48-7,4.47C650.66,818.77,639.51,818.79,628.36,818.8Zm-11.17-25.5c4.41,0,8.84.24,13.23-.08,3.07-.22,7.51,1.93,8.79-2.51,1.41-4.91.46-9.85-3.94-13.37-10.66-8.54-33.79-2.28-39,10.45-1.71,4.15-.58,5.69,3.84,5.55C605.77,793.16,611.49,793.3,617.19,793.3Z"/><path class="cls-2" d="M586.49,163.41c-26.13,68,29.58,151.76,110.91,162.57,22.76,3,45.06,2.91,66-8.15,5.84-3.1,11.15-7.18,16.85-10.9,2,3.85-1.12,5.62-2.61,7.65-20.07,27.49-47.62,40.31-81.24,41.81-60.63,2.71-119.41-40.78-134.14-99.65C553.94,223.66,563.32,186.39,586.49,163.41Z"/><path class="cls-3" d="M495,867.56c-9.68-.6-21.38,1.08-33-1.15-15-2.89-23.12-11.51-25.28-26.43-2.22-15.29,1.78-29.86,4.8-44.54,2.93-14.19,6.19-28.32,8.92-42.56.89-4.65,2.64-6.79,7.59-6.54,6.47.32,13,.3,19.44,0,5.47-.25,6.53,1.62,5.39,6.92-4.35,20.24-8.22,40.59-12.24,60.9a53.93,53.93,0,0,0-1,6.9c-.86,12.87,2.86,16.83,15.83,17,20.15.34,20.16.35,24.42-19.36,4.7-21.76,9.6-43.47,14-65.3,1.1-5.48,3.35-7.46,8.79-7.13,6.2.37,12.44.15,18.66.07,3.87-.06,5.71.85,4.71,5.45q-12,55-23.47,110.11c-1,4.59-3.32,5.75-7.57,5.66C515.58,867.43,506.24,867.56,495,867.56Z"/><path class="cls-3" d="M807.44,804.84c16.43-24.08,31.76-46.18,46.64-68.58,3.55-5.34,7.37-7.71,13.88-7.36,10.07.55,20.18.15,30.35.15.57,3.66-2.19,5.35-3.79,7.47-21,28-41.68,56.16-63.24,83.68-9.48,12.1-16.84,24.72-19,40-.84,5.75-3.64,7.83-9.43,7.49-7.49-.44-15-.24-22.54-.06-4.29.11-7-1.07-4.9-5.72,7.81-17.66,4.21-34.71-2-51.82-2.48-6.79-4.07-13.9-6.08-20.85-1-3.53-.14-5.43,3.93-5.38,8.81.11,17.63.13,26.44,0,3.94-.07,5.53,2.1,6.29,5.47C804.93,793.78,806,798.27,807.44,804.84Z"/><path class="cls-3" d="M740.48,746.79c11.14,0,22.29-.34,33.41.07,17.53.65,24.58,8,26.12,25.33.48,5.42-2.85,4.54-5.81,4.55-19.42,0-38.86.29-58.27-.11-6.84-.15-9.94,1.53-11.3,8.87-4.58,24.66-10.25,49.1-15,73.72-1.24,6.36-4,8.93-10.37,8.42a87.53,87.53,0,0,0-14.75,0c-7.13.64-9.15-1.91-7.59-8.93,6.61-29.78,12.89-59.64,19.3-89.47,1.2-5.56,2.73-11.07,3.53-16.69.67-4.66,3.07-6,7.37-5.9,11.13.15,22.27.05,33.41.05Z"/><path class="cls-3" d="M198,916.33c-18.45-.39-18.09-.31-14.25-18.13,1.77-8.21,3.67-13.86,14.11-12.4,6.87,1,10.27-5.26,13-10.61,4.89-9.62,5.68-20.41,8.06-30.72,4.14-17.92,8.23-35.84,11.86-53.86,1.12-5.55,3.59-7.27,8.94-7,7,.37,14,.29,21,0,4.87-.19,5.82,2,4.89,6.18q-10.23,45.87-20.41,91.76c-.11.5-.35,1-.51,1.46C234.94,913.17,221.16,917.88,198,916.33Z"/><path class="cls-3" d="M251.87,775.71c-17.82,0-18,0-13.66-17.47,3.23-13,.24-12,14.86-12,5.18,0,10.38.16,15.55-.05,4.55-.18,7.22.7,5.21,6.09a51.32,51.32,0,0,0-1.53,6.81C268.59,775.71,268.59,775.71,251.87,775.71Z"/><path class="cls-4" d="M802.5,396.76l-.28.5-.72-.55.53-.48C802.19,396.41,802.34,396.59,802.5,396.76Z"/></svg>