<svg id="Capa_1" data-name="Capa 1" xmlns="http://www.w3.org/2000/svg" viewBox="0 0 1080 1080"><defs><style>.cls-1{fill:#d9b82d;}.cls-2{fill:#fed73a;}.cls-3{fill:#ebebeb;}.cls-4{fill:#d7b623;}.cls-5{fill:#eceffb;}.cls-6{fill:#d7b521;}.cls-7{fill:#ebeced;}.cls-8{fill:#ebecef;}.cls-9{fill:#d8b82b;}.cls-10{fill:#dec76c;}.cls-11{fill:#d6b41d;}.cls-12{fill:#d7b727;}.cls-13{fill:#d7b725;}.cls-14{fill:#d7b51e;}.cls-15{fill:#d7b620;}.cls-16{fill:#fefefe;}.cls-17{fill:#fed634;}.cls-18{fill:#fed325;}.cls-19{fill:#fed737;}.cls-20{fill:#fed630;}.cls-21{fill:#fed52b;}</style></defs><title>java icon</title><rect x="51" y="50.5" width="978" height="979" rx="112.75"/><path class="cls-1" d="M540.38,183.61q151.95,0,303.88-.18c9.16,0,12.11,1.37,11.14,11.68Q839.16,368.92,824,542.8q-11.52,129.35-22.73,258.73c-2,23.11-1.64,23.33-23.71,29.52q-115.29,32.34-230.63,64.52a27,27,0,0,1-15.34-.23q-120.46-34-241.07-67.57c-7-1.95-9.38-5.13-10-12.34q-17.83-204-36.26-407.91-9.25-102.87-19-205.69c-1.73-18.26-2.13-18.22,16.15-18.22Z"/><path class="cls-2" d="M540,543.33c0-96.29.21-192.58-.26-288.87-.06-12.39,3.8-15.66,15.88-15.58,76.66.49,153.32.24,230,.25,14.47,0,14,.54,12.17,15.3-2.75,21.83-4,43.85-6,65.78-3,32.67-6.22,65.32-9.22,98-1.87,20.34-3.44,40.71-5.28,61.05-3.06,33.87-6.37,67.73-9.32,101.62-2.72,31.12-5,62.28-7.68,93.4-3.12,36.29-6.55,72.56-9.65,108.85-.62,7.33-6.56,7.67-11.2,9-38.67,10.85-77.42,21.42-116.16,32-24,6.57-48.21,12.55-72,19.81-10.32,3.15-11.39-.45-11.37-9.31Q540.19,689,540,543.33Z"/><path class="cls-3" d="M452.75,645.3q.22-104.44.42-208.88c.06-34.22.43-68.44-.24-102.64-.2-10.36,3.09-13.37,12.94-12.4,15.84,1.57,31.94-2.22,47.69,2.09-14.7,3.12-29.58.86-44.37,1.33-12.79.41-12.82.11-12.82,13.36q0,150.45,0,300.91a4.72,4.72,0,0,1-1,3.32l1.07.06q0-153.55-.12-307.09c0-7.38,1.32-11.09,9.87-10.59a337.74,337.74,0,0,0,36.28,0c8.56-.41,11.74,3.3,11.75,11.21,0,4.83.09,9.67.09,14.5q0,179.46.06,358.92c0,10.51-.33,20.91-3.1,31.11a6.17,6.17,0,0,1-.33,1.52c-1.6,1.38-3.4,1.15-5.24.64-5.78-3.66-13-3-18.9-6.14-6.73-7.23-16.66-6-24.85-9.37-4-1.64-8.15-2.84-12.23-4.23-9.1-5.17-19.56-6.1-29.34-9.11-25.93-8-52.56-13.46-78.27-22.28-7.08-1.18-8.77-6.16-8.84-12.32-.16-15.25-.42-30.5.09-45.73.37-11.25,3.66-13.3,14.56-9.88,4.21,1.32,8.23,3.23,12.82,2.37l40.82,10.28c12.45-1.14,23.17,5.53,34.88,7.72C441.83,645,447,648.33,452.75,645.3Z"/><path class="cls-4" d="M515.57,324c1.54-1.68,3.6-2.79,4.39.12s.59,6.36.59,9.56q0,197.94-.23,395.88c0,3.07,4.55,10.38-4.76,9.66-3.35-3.79-2.19-8.42-2.2-12.72q-.09-194.26,0-388.52C513.37,333.3,512.26,328.29,515.57,324Z"/><path class="cls-5" d="M511.27,740.54c-1.14-2.61-8.44-4-1.23-8.45,1.59-1,.82-6.07.82-9.26q0-192.23.2-384.44c0-9.18-2-13.34-12-12.45a165.45,165.45,0,0,1-29,0c-10.57-.95-12.6,3.51-12.57,13.14.31,98.32.19,196.65.19,295v13.08l-1.78.13c-.2-2.77-.56-5.55-.56-8.32,0-100.74.16-201.49-.29-302.23-.05-11.1,3.49-13.71,13.8-13.18,14.88.75,29.84,0,44.77-.07l-.07,0c1.71,3.44,1,7.13,1,10.7q.06,197.37,0,394.74c0,3.55.92,7.27-1.14,10.62A4,4,0,0,1,511.27,740.54Z"/><path class="cls-6" d="M452.75,645.3c-1,3.55-2.82,5.44-6.9,4.2-14.74-4.47-29.52-8.82-44.29-13.21,6.95-6.9,13.79-.76,20,1,26.44,7.35,26.35,7.69,26.35-19.51V324.52l2.42-.2v11.44q0,147.9.08,295.8C450.44,636.16,448.6,641.3,452.75,645.3Z"/><path class="cls-3" d="M513.3,739.5q.09-208,.19-416.06a4.33,4.33,0,0,1,2.08.6c-.13,39.83-.39,79.66-.37,119.49q.07,147.87.37,295.73l-1.11.35Z"/><path class="cls-7" d="M343.8,691.25c24.71,3.06,47.91,12.12,71.92,18a275,275,0,0,1,39.69,13.09l-5.69.65-6.76.16c-9.11,1.38-17.54-2.3-25.71-4.87-21.47-6.74-43-13.06-64.82-18.68a11.65,11.65,0,0,1-6.25-3.47l-2.38-2.4c-.62-.55-.83-1.09-.62-1.64S343.6,691.25,343.8,691.25Z"/><path class="cls-8" d="M343.8,691.25v2.45c-4.36.93-8-1.62-11.92-2.59-2.79-2.88-2.56-6.55-2.57-10.12-.05-17.52-.08-35,0-52.57,0-4.29-.65-9,4.63-11.22,5.4-.57,10.19,1.12,14.69,3.94L360.74,626c-3.41,3.92-7.23,2.15-10.93.66-11.16-4.47-14.22-.26-13.48,10.94a347.71,347.71,0,0,1,0,40.58C336,684.81,338.56,688.47,343.8,691.25Z"/><path class="cls-9" d="M346.18,696.1c32.85,6.9,64.3,18.79,96.78,27-8.28,5.31-15.33-.84-22.63-2.8-25.35-6.8-50.55-14.14-75.76-21.45-.42-.12-5.6,1.2-1.89-2.5C343.31,695.74,345,696.16,346.18,696.1Z"/><path class="cls-10" d="M336.64,618.41c-6.12.54-4.95,5.19-4.94,9,0,21.24.11,42.48.18,63.71l-2.44.14a420.79,420.79,0,0,1,0-75,11.07,11.07,0,0,0,2.37-.22C334.41,614.88,336.6,614.43,336.64,618.41Z"/><path class="cls-11" d="M329.48,616.29q0,37.47-.05,75c-3.56-2.61-2.53-6.47-2.54-9.93q-.12-27.57,0-55.13C326.9,622.73,325.86,618.86,329.48,616.29Z"/><path class="cls-12" d="M513.09,318.21H455.91l0-.92h57.19C513.08,317.6,513.09,317.9,513.09,318.21Z"/><path class="cls-13" d="M486.8,736.56c6.68.83,14.14-1.27,19.39,5.06q1.86,1.51-.15,2.82C499.43,742.29,492.13,741.83,486.8,736.56Z"/><path class="cls-14" d="M336.64,618.41l-4.79-2.33c6.93-2.7,12.84-2.06,16.8,5.06C344.19,622.22,340.58,619.59,336.64,618.41Z"/><path class="cls-15" d="M506,744.44l.15-2.82,4.75.44c4.12,4.25,4.1,4.41-.47,3.4C509,745.13,507.52,744.78,506,744.44Z"/><path class="cls-16" d="M598,589.64c-7.57,1.07-15.33,1.41-22.65,3.4-8.27,2.26-9.55-.94-9.54-8.18q.24-126.92,0-253.85c0-7.41,2.36-9.64,9.7-9.61q91.41.36,182.8,0c6.94,0,8.87,1.65,8,9C764.2,348,763,365.7,762,383.38c-.52,9.31-3.74,12.84-13.89,12.7-38.72-.55-77.45,0-116.18.12-2.4,4-2.42,8.38-2.42,12.82,0,28.07.09,56.13,0,84.2,0,8,.35,11.56,11.29,10.33,26.89-3,53.56-8.84,80.83-8.06,6.78-.65,13.64-.87,20.33-2,8.54-1.49,10.87.53,10,9.91-4.34,49.15-7.81,98.39-11.53,147.6a54.73,54.73,0,0,0,.18,6c.06.62.11,1.23.16,1.85.06,8.05.53,16.11-.3,24.15a5.72,5.72,0,0,1-2.26,2.91c-.69,9.21-6,12.69-14.82,14.87-33.29,8.29-66.35,17.53-99.49,26.41-18.68,6.24-37.19,13.16-57.13,14.4-.28-22.34-.33-44.69-1-67-.18-6.76,4.08-7.73,8.77-9.06q21.85-6.21,43.67-12.48c8.23-6.63,19.28-4.84,28.2-9.4,10.59-1.62,20.64-5.35,30.92-8.14,10.68-2.91,6.36-13,8.33-20,2.9-11.1,1.87-22.41,1.79-33.65-.81-4.79-4.59-4.09-7.92-4.23-4.14-.13-8.24-.14-12,2.1-9.27,1.79-18.58,3.32-27.85,5.08-4.44.15-9-.4-13,2.1C617.14,587.51,608,592.68,598,589.64Z"/><path class="cls-17" d="M721.6,495.49q-44.11,5.83-88.22,11.71c-4.92.66-6.38-1.61-6.37-6.1q.09-49.94,0-99.88c0-3.3,1.14-5.44,4.92-5,3.55,4,8.29,2.37,12.53,2.39,33.87.13,67.74,0,101.62.13,3.89,0,8-1.14,14,2.36H685.56c-14.52,0-29,.24-43.55-.1-6.9-.16-10.28,1.51-10.18,9.33.36,27.78.22,55.57.08,83.35,0,5.88.56,8.31,8,7.11,20.52-3.31,41.22-5.6,61.93-7.46C708.31,492.73,715.52,490.51,721.6,495.49Z"/><path class="cls-2" d="M639.27,582.32l28.35-4.94c4-2.43,9,.86,12.85-2.39,3.31.63,7.49-2.06,9.76,2.55-3.74,13,.65,26.46-2.35,39.49.54,12.19-2.23,21.57-16.87,23.2-8.23.91-16.27,3.53-24.39,5.39a3.16,3.16,0,0,1-2.55-2.76c10.24-3.19,20.39-6.7,30.75-9.42,4.39-1.16,8.36-2.54,7.76-7.4-1.52-12.43,3.07-24.24,2.9-36.58-.13-8.75-4-10.48-11.21-9.19-20.08,3.59-40.12,7.38-60.2,10.93-5.41,1-11.07,2.81-16-1.56l28.51-5C630.48,582.19,635.47,585.44,639.27,582.32Z"/><path class="cls-18" d="M562.16,591V324.21h1.16V592Z"/><path class="cls-17" d="M764.34,318.53h-197c0-.4,0-.8,0-1.2H764.83Z"/><path class="cls-19" d="M566.78,741.55c19-5.16,37.73-11,57.13-14.4l8.82,1.11c-23.43,6.43-43.75,12.2-64.2,17.5C563.62,747,566.78,743.24,566.78,741.55Z"/><ellipse class="cls-18" cx="562.81" cy="704.79" rx="0.68" ry="49.08"/><path class="cls-20" d="M644.07,642.86l2.55,2.76c-9.07,3.93-18.74,5.54-28.36,7.37-.86-.84-6.53-.6-1.12-2.91A94.17,94.17,0,0,1,644.07,642.86Z"/><path class="cls-21" d="M738.22,685.87a1.75,1.75,0,0,1,.14-1.83c3.63-8.71-.58-18.1,2.38-26.87l-.12-.21c5.94,12.4,2.16,24.61-1.38,36.92Z"/><path class="cls-2" d="M687.88,617c1-13.15-3.14-26.61,2.35-39.49C689.79,590.72,691.2,604,687.88,617Z"/><path class="cls-2" d="M740.74,657.17c-.82,9,2.93,18.31-2.38,26.87C738.56,675,737.29,665.89,740.74,657.17Z"/><path class="cls-2" d="M680.47,575c-3.62,4.36-8.47,2.07-12.84,2.39C671.57,574.82,676,575,680.47,575Z"/><path class="cls-2" d="M639.27,582.32c-3.59,4.24-8.39,2-12.71,2.34C630.46,582.08,634.89,582.32,639.27,582.32Z"/></svg>